PathFileType	4	(X/Y/Z)	C:\Users\WrightLab\Desktop\Jo\P4V122.trc
DataRate	CameraRate	NumFrames	NumMarkers	Units	OrigDataRate	OrigDataStartFrame	OrigNumFrames
100.00	100.00	       18	19	mm	100.00	159	       633
Frame#	Time	Headset_Front			Headset_Back			Headset_Left			Headset_Right			Left_Shoulder			Right_Shoulder			Sternum			C7			Left Elbow			Right Elbow			Left Wrist			Right Wrist			Left ASIS			Right ASIS			S2			Left Knee			Right Knee			Left Ankle			Right Ankle			
		X1	Y1	Z1	X2	Y2	Z2	X3	Y3	Z3	X4	Y4	Z4	X5	Y5	Z5	X6	Y6	Z6	X7	Y7	Z7	X8	Y8	Z8	X9	Y9	Z9	X10	Y10	Z10	X11	Y11	Z11	X12	Y12	Z12	X13	Y13	Z13	X14	Y14	Z14	X15	Y15	Z15	X16	Y16	Z16	X17	Y17	Z17	X18	Y18	Z18	X19	Y19	Z19	

159	1.580	-508.68283	1746.82336	-1118.97302	-625.68005	1677.95422	-928.22406							-652.35754	1493.14893	-1111.98450				-546.53809	1419.77307	-950.37457	-495.92664	1530.99243	-1097.30127	-227.16626	1151.01428	-957.03937	-800.73755	1150.67200	-1158.85461	-294.71210	856.77716	-870.75684	-837.86212	933.33063	-946.67883	-396.45578	998.87048	-928.81348	-686.37421	1004.90582	-1092.09314				-473.05783	564.13684	-789.72296	-638.61865	519.69763	-1152.92224	-500.55191	50.23598	-890.31317				
160	1.590	-511.54752	1745.65417	-1110.43127	-628.39435	1676.78003	-919.43402							-655.80511	1492.19006	-1102.63220				-550.16687	1417.91602	-941.46051	-499.25592	1529.87817	-1089.55774	-229.44310	1149.39893	-951.29968	-804.60785	1148.86768	-1147.15869	-295.70081	855.15216	-866.11334	-841.98859	935.68121	-932.32666	-401.40262	996.12170	-921.31726	-690.98059	1004.82159	-1084.58862				-476.06982	560.94476	-783.89801	-641.01587	518.73700	-1147.71021	-518.57440	44.61629	-861.87695				
161	1.600	-514.45801	1744.23547	-1101.40540	-631.08142	1675.49976	-910.87286							-659.18561	1490.79883	-1093.95654				-553.02484	1417.25867	-933.62408	-502.42218	1528.82495	-1081.70715	-232.07462	1148.29456	-946.15222	-808.67975	1148.22974	-1137.48730	-296.48334	853.96344	-861.93213	-845.73016	938.19592	-918.36438	-405.41895	994.11743	-912.74518	-695.28174	1004.75598	-1072.36694				-478.47739	557.35773	-777.88770	-642.94263	518.39642	-1142.49731	-534.34912	39.79472	-832.81775				
162	1.610	-517.25873	1742.79883	-1092.77490	-633.82416	1673.74255	-901.71454							-662.37097	1489.68091	-1085.18164				-554.59216	1415.16516	-924.64032	-505.56570	1527.10254	-1072.94958	-234.32721	1145.96704	-939.06012	-812.97198	1147.36243	-1126.40112	-297.55829	850.96100	-856.60022	-848.76880	939.65710	-905.17450	-410.17862	991.64136	-904.71570	-700.06671	1002.17383	-1061.91064				-480.60266	553.49103	-772.66290	-644.86035	517.30591	-1137.14063	-549.76978	37.07845	-805.56848				
163	1.620	-519.93280	1741.38672	-1084.16577	-636.30200	1672.38501	-892.78809													-558.08234	1413.51367	-915.91620	-508.44986	1525.52405	-1064.16870	-237.28531	1144.33423	-933.06561	-816.62219	1146.46509	-1115.67126	-298.93723	849.21802	-851.51727	-852.37592	941.55670	-891.84088	-411.88184	989.73761	-895.59320	-705.57520	1001.18097	-1053.46899				-483.95358	550.05585	-767.53998	-647.40320	515.92139	-1131.28882	-565.63434	33.64310	-777.85925				
164	1.630	-522.47260	1739.87134	-1075.49719	-638.80688	1670.65027	-884.16589										-668.33124	1487.14209	-1066.98828	-560.96356	1412.72021	-907.43341	-511.36496	1523.62512	-1055.94763	-239.67644	1142.64734	-927.56641	-820.22766	1145.34155	-1104.50793	-300.10843	846.14514	-846.30798	-855.06354	942.59827	-878.22522	-415.52139	987.20612	-886.51910	-708.56445	999.15393	-1046.30481				-486.90182	544.89966	-762.55194	-649.73914	515.81189	-1125.81897	-581.52802	31.04844	-751.75812				
165	1.640	-525.06897	1737.84827	-1066.23193	-641.29938	1668.91113	-875.45929										-671.35693	1485.43921	-1057.50952	-562.50623	1410.61890	-898.24860	-514.04761	1521.86829	-1047.02917	-242.10291	1140.11316	-920.78040	-823.75616	1143.77405	-1093.50244	-301.12799	844.07135	-840.58246	-857.26532	944.69122	-865.69977	-420.11429	984.23016	-877.26514	-712.76813	997.07880	-1034.91125				-491.19205	539.76813	-757.67065	-652.41809	514.69159	-1120.08325	-594.10162	31.64969	-726.98822				
166	1.650	-527.44995	1736.23853	-1057.60132	-643.56342	1667.16504	-866.41046										-674.07037	1484.16504	-1048.36877	-564.75635	1408.66699	-889.00397	-516.66534	1519.79675	-1038.04211	-244.59702	1138.17847	-912.89526	-826.79596	1142.33118	-1082.73804	-302.53394	840.35022	-834.32935	-860.16876	945.37561	-850.67670	-423.81326	981.41974	-869.32983	-716.31818	996.99884	-1020.62421				-494.10208	535.00995	-753.40997	-655.22662	513.99011	-1114.82715	-604.89026	32.28429	-702.99207				
167	1.660	-529.82629	1734.30811	-1048.64355	-645.86987	1665.22913	-857.74048										-676.76099	1482.49243	-1038.99170	-566.82483	1407.85144	-880.39166	-519.14471	1517.90796	-1029.95093	-247.05342	1135.61230	-908.12903	-829.67096	1141.00415	-1071.06665	-303.94403	838.15936	-828.44830	-862.99347	946.21637	-837.61420	-426.86859	978.95361	-858.50024	-721.47650	993.96002	-1012.03638				-497.73395	530.18805	-748.59418	-658.15741	513.42426	-1109.09924	-616.02008	33.21816	-680.64246				
168	1.670	-532.10602	1732.54871	-1039.82275	-648.15924	1663.33521	-848.96832										-679.32056	1480.97327	-1029.71338	-570.00098	1406.51208	-870.81030	-521.44293	1515.78381	-1020.24414	-249.21602	1133.26636	-901.48956	-832.28064	1139.00745	-1060.45825	-305.44424	835.01715	-822.44928	-865.21655	947.49603	-825.11218	-430.03918	976.78882	-849.21906	-725.64111	992.18195	-1005.93561				-501.78647	525.93250	-742.90570	-661.19598	511.32434	-1101.92102	-625.54883	35.04962	-660.69495				
169	1.680	-534.38147	1730.49487	-1031.16211	-650.26538	1661.51892	-839.75079										-681.85352	1479.25500	-1019.79126	-570.75592	1403.58545	-861.58405	-523.78729	1513.78455	-1011.87091	-251.83080	1130.36975	-892.33429	-834.78290	1137.48486	-1048.82190	-306.71533	832.57910	-816.42023	-868.11475	948.79028	-811.18250	-434.67126	973.64075	-840.19861	-729.75183	989.22412	-997.74030				-507.41275	521.89001	-735.43207	-664.11682	511.14566	-1095.38550	-632.92682	34.81247	-643.28333				
170	1.690	-536.46613	1728.44556	-1021.71191	-652.48553	1659.57092	-830.82721										-684.20563	1477.70422	-1010.51733	-573.08447	1402.61743	-851.82843	-525.98267	1511.84497	-1002.65149	-253.76285	1127.96667	-885.91791	-836.85815	1135.78503	-1038.09900	-307.99600	829.22583	-809.44366	-870.28265	948.64221	-798.78278	-438.57059	971.40497	-830.19122	-733.03723	988.75867	-985.58270				-512.02435	519.41821	-727.68817	-667.30670	509.94089	-1088.10022	-640.21082	34.75555	-628.18848				
171	1.700	-538.52106	1726.68103	-1013.09766	-654.43353	1658.04370	-821.86047										-686.56506	1476.20154	-1000.18298	-575.61603	1401.36548	-842.30859	-528.14362	1509.71204	-993.01160	-256.64771	1125.41150	-877.60529	-838.98749	1133.75330	-1026.69971	-309.43799	827.31555	-802.63257	-872.35620	949.66461	-785.20135	-441.60065	968.79138	-820.13898	-736.26068	986.00153	-974.56866				-516.20966	517.11572	-718.82758	-670.63525	509.19650	-1080.56702	-645.56738	33.18857	-614.89294				
172	1.710	-540.32611	1725.15320	-1004.34424	-656.31836	1656.70581	-812.92578										-688.92291	1474.56250	-990.62305	-576.89514	1399.29517	-832.39734	-530.31140	1508.00171	-983.88837	-258.92151	1122.52209	-871.58087	-840.71783	1132.03589	-1015.94000	-310.52197	824.63525	-796.29669	-875.25165	950.17004	-773.40424	-445.29007	966.64514	-810.11536	-740.41534	984.86896	-962.44434				-519.88312	516.60742	-707.49951	-674.43097	508.81796	-1072.53711	-649.20520	31.88804	-606.13910				
173	1.720	-542.15356	1723.50146	-995.09039	-658.21448	1655.38843	-803.20239										-691.13739	1473.40808	-980.39423	-580.11670	1398.94336	-823.12952	-532.40948	1506.39673	-974.56470	-260.34454	1121.07385	-863.27008	-842.30933	1130.16760	-1004.14166	-311.93082	821.98737	-787.54504	-877.83105	950.20532	-760.51611	-448.97183	964.84637	-800.11646	-744.31720	986.53510	-950.01953				-523.60596	515.50098	-696.59790	-678.32166	507.94128	-1064.13940	-653.80847	29.91444	-599.01343				
174	1.730	-543.84692	1722.02405	-986.13000	-659.91541	1654.54211	-793.70178										-693.41479	1472.15613	-970.24915	-580.56720	1397.51331	-812.70728	-534.40118	1505.11694	-964.51794	-263.07883	1117.92969	-854.74072	-843.91943	1128.36670	-992.60443	-313.34598	819.91772	-781.07056	-880.42804	950.43915	-748.76898	-452.49435	963.91974	-790.95172	-748.45679	985.10785	-941.18909				-526.68701	516.06580	-685.46021	-682.67834	507.88254	-1054.89197	-656.75714	26.49980	-594.79871				
175	1.740	-545.46533	1720.76697	-976.96478	-661.49390	1654.01978	-784.79639										-695.67999	1471.18604	-959.29480	-582.26599	1396.11230	-801.88770	-536.45038	1504.02844	-955.20685	-265.94052	1117.01062	-847.12384	-845.36609	1127.47083	-981.59204	-314.83023	817.85803	-771.63123	-882.14948	949.91760	-736.25354	-456.27393	962.20752	-779.04407	-752.20477	983.43579	-929.29474				-531.14569	515.47797	-672.56116	-687.08032	507.43634	-1045.36328	-658.07007	23.96253	-593.75073				
176	1.750	-546.93579	1719.64063	-967.62836	-662.95685	1653.74756	-775.42188										-697.60034	1470.55664	-949.01819	-583.83167	1396.39429	-791.74072	-538.28571	1503.19116	-945.15247	-268.22067	1115.29236	-838.52966	-846.53235	1125.65820	-969.31598	-316.55432	817.37341	-766.12701	-883.74072	949.33154	-724.22266	-458.69952	962.55737	-767.43408	-755.58673	982.58069	-916.52802				-534.27252	515.72687	-660.74786	-692.49695	508.53339	-1036.84192	-658.44586	24.17157	-592.95142				
